<mxfile host="Electron" modified="2024-03-18T10:29:54.539Z" agent="Mozilla/5.0 (Windows NT 10.0; Win64; x64) AppleWebKit/537.36 (KHTML, like Gecko) draw.io/23.1.5 Chrome/120.0.6099.109 Electron/28.1.0 Safari/537.36" etag="2lOodttCbkZWB6LfpkcQ" version="23.1.5" type="device">
  <diagram name="PÃ¡gina-1" id="dZrKRO0nS6iRf0OA7EaC">
    <mxGraphModel dx="1607" dy="1665" grid="1" gridSize="10" guides="1" tooltips="1" connect="1" arrows="1" fold="1" page="1" pageScale="1" pageWidth="827" pageHeight="1169" math="0" shadow="0">
      <root>
        <mxCell id="0" />
        <mxCell id="1" parent="0" />
        <mxCell id="C_DD_CyQaUzeVKJbldlR-2" value=".json" style="shape=note;whiteSpace=wrap;html=1;backgroundOutline=1;darkOpacity=0.05;" parent="1" vertex="1">
          <mxGeometry x="-90" y="-865.5" width="60" height="83" as="geometry" />
        </mxCell>
        <mxCell id="C_DD_CyQaUzeVKJbldlR-3" value="Fonte de dados&lt;div&gt;&lt;br/&gt;&lt;/div&gt;" style="text;html=1;align=center;verticalAlign=middle;resizable=0;points=[];autosize=1;strokeColor=none;fillColor=none;" parent="1" vertex="1">
          <mxGeometry x="-115" y="-782" width="110" height="40" as="geometry" />
        </mxCell>
        <mxCell id="C_DD_CyQaUzeVKJbldlR-7" value="Amazon S3&lt;br&gt;Bucket&lt;br&gt;" style="outlineConnect=0;fontColor=#232F3E;gradientColor=none;fillColor=#277116;strokeColor=none;dashed=0;verticalLabelPosition=bottom;verticalAlign=top;align=center;html=1;fontSize=12;fontStyle=0;aspect=fixed;pointerEvents=1;shape=mxgraph.aws4.bucket;labelBackgroundColor=#ffffff;" parent="1" vertex="1">
          <mxGeometry x="605" y="-831.5" width="47.12" height="49" as="geometry" />
        </mxCell>
        <mxCell id="C_DD_CyQaUzeVKJbldlR-8" value="Lambda&lt;br&gt;Function&lt;br&gt;" style="outlineConnect=0;fontColor=#232F3E;gradientColor=none;fillColor=#D05C17;strokeColor=none;dashed=0;verticalLabelPosition=bottom;verticalAlign=top;align=center;html=1;fontSize=12;fontStyle=0;aspect=fixed;pointerEvents=1;shape=mxgraph.aws4.lambda_function;labelBackgroundColor=#ffffff;" parent="1" vertex="1">
          <mxGeometry x="275" y="-828.25" width="48" height="48" as="geometry" />
        </mxCell>
        <mxCell id="C_DD_CyQaUzeVKJbldlR-9" value="Lambda&lt;br&gt;Function&lt;br&gt;" style="outlineConnect=0;fontColor=#232F3E;gradientColor=none;fillColor=#D05C17;strokeColor=none;dashed=0;verticalLabelPosition=bottom;verticalAlign=top;align=center;html=1;fontSize=12;fontStyle=0;aspect=fixed;pointerEvents=1;shape=mxgraph.aws4.lambda_function;labelBackgroundColor=#ffffff;" parent="1" vertex="1">
          <mxGeometry x="373" y="-982.25" width="48" height="48" as="geometry" />
        </mxCell>
        <mxCell id="C_DD_CyQaUzeVKJbldlR-10" value="Amazon DynamoDB" style="outlineConnect=0;fontColor=#232F3E;gradientColor=#4D72F3;gradientDirection=north;fillColor=#3334B9;strokeColor=#ffffff;dashed=0;verticalLabelPosition=bottom;verticalAlign=top;align=center;html=1;fontSize=12;fontStyle=0;aspect=fixed;shape=mxgraph.aws4.resourceIcon;resIcon=mxgraph.aws4.dynamodb;labelBackgroundColor=#ffffff;" parent="1" vertex="1">
          <mxGeometry x="270" y="-982.25" width="53" height="53" as="geometry" />
        </mxCell>
        <mxCell id="C_DD_CyQaUzeVKJbldlR-11" value="" style="sketch=0;points=[[0,0,0],[0.25,0,0],[0.5,0,0],[0.75,0,0],[1,0,0],[0,1,0],[0.25,1,0],[0.5,1,0],[0.75,1,0],[1,1,0],[0,0.25,0],[0,0.5,0],[0,0.75,0],[1,0.25,0],[1,0.5,0],[1,0.75,0]];outlineConnect=0;fontColor=#232F3E;fillColor=#8C4FFF;strokeColor=#ffffff;dashed=0;verticalLabelPosition=bottom;verticalAlign=top;align=center;html=1;fontSize=12;fontStyle=0;aspect=fixed;shape=mxgraph.aws4.resourceIcon;resIcon=mxgraph.aws4.athena;" parent="1" vertex="1">
          <mxGeometry x="582.12" y="-980" width="58" height="58" as="geometry" />
        </mxCell>
        <mxCell id="C_DD_CyQaUzeVKJbldlR-13" value="Athena" style="text;html=1;align=center;verticalAlign=middle;resizable=0;points=[];autosize=1;strokeColor=none;fillColor=none;" parent="1" vertex="1">
          <mxGeometry x="580.12" y="-927" width="60" height="30" as="geometry" />
        </mxCell>
        <mxCell id="C_DD_CyQaUzeVKJbldlR-14" value="" style="sketch=0;points=[[0,0,0],[0.25,0,0],[0.5,0,0],[0.75,0,0],[1,0,0],[0,1,0],[0.25,1,0],[0.5,1,0],[0.75,1,0],[1,1,0],[0,0.25,0],[0,0.5,0],[0,0.75,0],[1,0.25,0],[1,0.5,0],[1,0.75,0]];outlineConnect=0;fontColor=#232F3E;fillColor=#E7157B;strokeColor=#ffffff;dashed=0;verticalLabelPosition=bottom;verticalAlign=top;align=center;html=1;fontSize=12;fontStyle=0;aspect=fixed;shape=mxgraph.aws4.resourceIcon;resIcon=mxgraph.aws4.sqs;" parent="1" vertex="1">
          <mxGeometry x="155" y="-831.5" width="54.5" height="54.5" as="geometry" />
        </mxCell>
        <mxCell id="C_DD_CyQaUzeVKJbldlR-15" value="" style="sketch=0;points=[[0,0,0],[0.25,0,0],[0.5,0,0],[0.75,0,0],[1,0,0],[0,1,0],[0.25,1,0],[0.5,1,0],[0.75,1,0],[1,1,0],[0,0.25,0],[0,0.5,0],[0,0.75,0],[1,0.25,0],[1,0.5,0],[1,0.75,0]];outlineConnect=0;fontColor=#232F3E;fillColor=#E7157B;strokeColor=#ffffff;dashed=0;verticalLabelPosition=bottom;verticalAlign=top;align=center;html=1;fontSize=12;fontStyle=0;aspect=fixed;shape=mxgraph.aws4.resourceIcon;resIcon=mxgraph.aws4.sqs;" parent="1" vertex="1">
          <mxGeometry x="375" y="-831.5" width="54.5" height="54.5" as="geometry" />
        </mxCell>
        <mxCell id="C_DD_CyQaUzeVKJbldlR-16" value="SQS" style="text;html=1;align=center;verticalAlign=middle;resizable=0;points=[];autosize=1;strokeColor=none;fillColor=none;" parent="1" vertex="1">
          <mxGeometry x="155" y="-777" width="50" height="30" as="geometry" />
        </mxCell>
        <mxCell id="C_DD_CyQaUzeVKJbldlR-17" value="SQS" style="text;html=1;align=center;verticalAlign=middle;resizable=0;points=[];autosize=1;strokeColor=none;fillColor=none;" parent="1" vertex="1">
          <mxGeometry x="373" y="-777" width="50" height="30" as="geometry" />
        </mxCell>
        <mxCell id="C_DD_CyQaUzeVKJbldlR-20" value="" style="sketch=0;points=[[0,0,0],[0.25,0,0],[0.5,0,0],[0.75,0,0],[1,0,0],[0,1,0],[0.25,1,0],[0.5,1,0],[0.75,1,0],[1,1,0],[0,0.25,0],[0,0.5,0],[0,0.75,0],[1,0.25,0],[1,0.5,0],[1,0.75,0]];outlineConnect=0;fontColor=#232F3E;fillColor=#8C4FFF;strokeColor=#ffffff;dashed=0;verticalLabelPosition=bottom;verticalAlign=top;align=center;html=1;fontSize=12;fontStyle=0;aspect=fixed;shape=mxgraph.aws4.resourceIcon;resIcon=mxgraph.aws4.kinesis_data_firehose;" parent="1" vertex="1">
          <mxGeometry x="495" y="-828.25" width="58" height="58" as="geometry" />
        </mxCell>
        <mxCell id="C_DD_CyQaUzeVKJbldlR-21" value="Kinesis" style="text;html=1;align=center;verticalAlign=middle;resizable=0;points=[];autosize=1;strokeColor=none;fillColor=none;" parent="1" vertex="1">
          <mxGeometry x="495" y="-762" width="60" height="30" as="geometry" />
        </mxCell>
        <mxCell id="C_DD_CyQaUzeVKJbldlR-24" value="" style="endArrow=classic;html=1;rounded=0;entryX=-0.086;entryY=0.382;entryDx=0;entryDy=0;entryPerimeter=0;" parent="1" target="C_DD_CyQaUzeVKJbldlR-14" edge="1">
          <mxGeometry width="50" height="50" relative="1" as="geometry">
            <mxPoint x="85" y="-810" as="sourcePoint" />
            <mxPoint x="135" y="-860" as="targetPoint" />
          </mxGeometry>
        </mxCell>
        <mxCell id="C_DD_CyQaUzeVKJbldlR-25" value="" style="endArrow=classic;html=1;rounded=0;entryX=-0.086;entryY=0.382;entryDx=0;entryDy=0;entryPerimeter=0;" parent="1" edge="1">
          <mxGeometry width="50" height="50" relative="1" as="geometry">
            <mxPoint x="209.5" y="-806.5" as="sourcePoint" />
            <mxPoint x="274.5" y="-807.5" as="targetPoint" />
          </mxGeometry>
        </mxCell>
        <mxCell id="C_DD_CyQaUzeVKJbldlR-26" value="" style="endArrow=classic;html=1;rounded=0;" parent="1" edge="1">
          <mxGeometry width="50" height="50" relative="1" as="geometry">
            <mxPoint x="323" y="-806.5" as="sourcePoint" />
            <mxPoint x="375" y="-807" as="targetPoint" />
          </mxGeometry>
        </mxCell>
        <mxCell id="C_DD_CyQaUzeVKJbldlR-28" value="" style="endArrow=classic;html=1;rounded=0;entryX=0;entryY=0.5;entryDx=0;entryDy=0;entryPerimeter=0;" parent="1" target="C_DD_CyQaUzeVKJbldlR-20" edge="1">
          <mxGeometry width="50" height="50" relative="1" as="geometry">
            <mxPoint x="429.5" y="-799.25" as="sourcePoint" />
            <mxPoint x="481.5" y="-799.75" as="targetPoint" />
          </mxGeometry>
        </mxCell>
        <mxCell id="C_DD_CyQaUzeVKJbldlR-29" value="" style="endArrow=classic;html=1;rounded=0;" parent="1" edge="1">
          <mxGeometry width="50" height="50" relative="1" as="geometry">
            <mxPoint x="555" y="-799.75" as="sourcePoint" />
            <mxPoint x="605" y="-800" as="targetPoint" />
          </mxGeometry>
        </mxCell>
        <mxCell id="C_DD_CyQaUzeVKJbldlR-30" value="" style="endArrow=classic;html=1;rounded=0;" parent="1" source="C_DD_CyQaUzeVKJbldlR-8" edge="1">
          <mxGeometry width="50" height="50" relative="1" as="geometry">
            <mxPoint x="335" y="-870" as="sourcePoint" />
            <mxPoint x="297" y="-900" as="targetPoint" />
          </mxGeometry>
        </mxCell>
        <mxCell id="C_DD_CyQaUzeVKJbldlR-31" value="" style="endArrow=classic;html=1;rounded=0;" parent="1" edge="1">
          <mxGeometry width="50" height="50" relative="1" as="geometry">
            <mxPoint x="421" y="-957.75" as="sourcePoint" />
            <mxPoint x="473" y="-958.75" as="targetPoint" />
          </mxGeometry>
        </mxCell>
        <mxCell id="C_DD_CyQaUzeVKJbldlR-34" value="" style="endArrow=classic;html=1;rounded=0;" parent="1" edge="1">
          <mxGeometry width="50" height="50" relative="1" as="geometry">
            <mxPoint x="518.75" y="-957.75" as="sourcePoint" />
            <mxPoint x="570.75" y="-958.75" as="targetPoint" />
          </mxGeometry>
        </mxCell>
        <mxCell id="C_DD_CyQaUzeVKJbldlR-35" value="" style="endArrow=classic;html=1;rounded=0;entryX=-0.086;entryY=0.382;entryDx=0;entryDy=0;entryPerimeter=0;" parent="1" source="C_DD_CyQaUzeVKJbldlR-10" edge="1">
          <mxGeometry width="50" height="50" relative="1" as="geometry">
            <mxPoint x="335" y="-960" as="sourcePoint" />
            <mxPoint x="375" y="-960" as="targetPoint" />
          </mxGeometry>
        </mxCell>
        <mxCell id="C_DD_CyQaUzeVKJbldlR-37" value="User&lt;div&gt;&lt;br/&gt;&lt;/div&gt;" style="shape=umlActor;verticalLabelPosition=bottom;verticalAlign=top;html=1;outlineConnect=0;" parent="1" vertex="1">
          <mxGeometry x="596.12" y="-1110" width="30" height="60" as="geometry" />
        </mxCell>
        <mxCell id="C_DD_CyQaUzeVKJbldlR-38" value="" style="endArrow=classic;html=1;rounded=0;" parent="1" target="C_DD_CyQaUzeVKJbldlR-11" edge="1">
          <mxGeometry width="50" height="50" relative="1" as="geometry">
            <mxPoint x="611" y="-1030" as="sourcePoint" />
            <mxPoint x="385" y="-920" as="targetPoint" />
            <Array as="points" />
          </mxGeometry>
        </mxCell>
        <mxCell id="C_DD_CyQaUzeVKJbldlR-39" value="&lt;font style=&quot;font-size: 14px;&quot;&gt;MÃ³dulo Data Quality&lt;/font&gt;" style="text;html=1;align=center;verticalAlign=middle;resizable=0;points=[];autosize=1;strokeColor=none;fillColor=none;" parent="1" vertex="1">
          <mxGeometry x="300" y="-1110" width="150" height="30" as="geometry" />
        </mxCell>
        <mxCell id="zkp8-0haUbsxbjIfJwBx-1" value="AWS Glue" style="outlineConnect=0;fontColor=#232F3E;gradientColor=#945DF2;gradientDirection=north;fillColor=#5A30B5;strokeColor=#ffffff;dashed=0;verticalLabelPosition=bottom;verticalAlign=top;align=center;html=1;fontSize=12;fontStyle=0;aspect=fixed;shape=mxgraph.aws4.resourceIcon;resIcon=mxgraph.aws4.glue;labelBackgroundColor=#ffffff;" parent="1" vertex="1">
          <mxGeometry x="480" y="-982.25" width="48" height="48" as="geometry" />
        </mxCell>
        <mxCell id="lCTnwInbHHjYuiLFSgJc-1" value="Amazon SNS" style="outlineConnect=0;fontColor=#232F3E;gradientColor=#F34482;gradientDirection=north;fillColor=#BC1356;strokeColor=#ffffff;dashed=0;verticalLabelPosition=bottom;verticalAlign=top;align=center;html=1;fontSize=12;fontStyle=0;aspect=fixed;shape=mxgraph.aws4.resourceIcon;resIcon=mxgraph.aws4.sns;labelBackgroundColor=#ffffff;" vertex="1" parent="1">
          <mxGeometry x="40" y="-835" width="48" height="48" as="geometry" />
        </mxCell>
        <mxCell id="lCTnwInbHHjYuiLFSgJc-2" value="" style="endArrow=classic;html=1;rounded=0;" edge="1" parent="1">
          <mxGeometry width="50" height="50" relative="1" as="geometry">
            <mxPoint x="-30" y="-815.5" as="sourcePoint" />
            <mxPoint x="30" y="-815" as="targetPoint" />
          </mxGeometry>
        </mxCell>
      </root>
    </mxGraphModel>
  </diagram>
</mxfile>
